<mxfile host="app.diagrams.net" agent="Mozilla/5.0 (Windows NT 10.0; Win64; x64) AppleWebKit/537.36 (KHTML, like Gecko) Chrome/131.0.0.0 Safari/537.36" version="24.9.1">
  <diagram id="h8K5LFYwlPiyA8juJ4yT" name="Page-1">
    <mxGraphModel dx="1235" dy="624" grid="1" gridSize="10" guides="1" tooltips="1" connect="1" arrows="1" fold="1" page="1" pageScale="1" pageWidth="1169" pageHeight="827" math="0" shadow="0">
      <root>
        <mxCell id="0" />
        <mxCell id="1" parent="0" />
        <mxCell id="90BueiYt9hdukvajVA8q-151" style="edgeStyle=orthogonalEdgeStyle;rounded=0;orthogonalLoop=1;jettySize=auto;html=1;exitX=1;exitY=0.25;exitDx=0;exitDy=0;entryX=0;entryY=0.75;entryDx=0;entryDy=0;" edge="1" parent="1" source="90BueiYt9hdukvajVA8q-101" target="90BueiYt9hdukvajVA8q-32">
          <mxGeometry relative="1" as="geometry">
            <Array as="points">
              <mxPoint x="600" y="335" />
              <mxPoint x="600" y="280" />
              <mxPoint x="440" y="280" />
              <mxPoint x="440" y="155" />
            </Array>
          </mxGeometry>
        </mxCell>
        <mxCell id="90BueiYt9hdukvajVA8q-168" value="ACCUMULATOR&lt;div&gt;ENABLE&lt;/div&gt;" style="edgeLabel;html=1;align=center;verticalAlign=middle;resizable=0;points=[];" vertex="1" connectable="0" parent="90BueiYt9hdukvajVA8q-151">
          <mxGeometry x="-0.8896" y="3" relative="1" as="geometry">
            <mxPoint x="14" y="-12" as="offset" />
          </mxGeometry>
        </mxCell>
        <mxCell id="90BueiYt9hdukvajVA8q-156" value="" style="endArrow=classic;html=1;rounded=0;entryX=0;entryY=0.75;entryDx=0;entryDy=0;" edge="1" parent="1" target="90BueiYt9hdukvajVA8q-1">
          <mxGeometry width="50" height="50" relative="1" as="geometry">
            <mxPoint x="20" y="210" as="sourcePoint" />
            <mxPoint x="130" y="200" as="targetPoint" />
            <Array as="points">
              <mxPoint x="140" y="210" />
              <mxPoint x="140" y="155" />
            </Array>
          </mxGeometry>
        </mxCell>
        <mxCell id="90BueiYt9hdukvajVA8q-158" value="CLK" style="edgeLabel;html=1;align=center;verticalAlign=middle;resizable=0;points=[];" vertex="1" connectable="0" parent="90BueiYt9hdukvajVA8q-156">
          <mxGeometry x="-0.6385" y="-1" relative="1" as="geometry">
            <mxPoint y="-11" as="offset" />
          </mxGeometry>
        </mxCell>
        <mxCell id="90BueiYt9hdukvajVA8q-17" style="edgeStyle=orthogonalEdgeStyle;rounded=0;orthogonalLoop=1;jettySize=auto;html=1;exitX=1;exitY=0.5;exitDx=0;exitDy=0;entryX=0;entryY=0.5;entryDx=0;entryDy=0;" edge="1" parent="1" source="90BueiYt9hdukvajVA8q-1">
          <mxGeometry relative="1" as="geometry">
            <mxPoint x="360" y="140" as="targetPoint" />
          </mxGeometry>
        </mxCell>
        <mxCell id="90BueiYt9hdukvajVA8q-18" style="edgeStyle=orthogonalEdgeStyle;rounded=0;orthogonalLoop=1;jettySize=auto;html=1;exitX=1;exitY=0.5;exitDx=0;exitDy=0;entryX=0;entryY=0.5;entryDx=0;entryDy=0;" edge="1" parent="1" source="90BueiYt9hdukvajVA8q-1">
          <mxGeometry relative="1" as="geometry">
            <mxPoint x="360" y="220" as="targetPoint" />
            <Array as="points">
              <mxPoint x="300" y="140" />
              <mxPoint x="300" y="220" />
            </Array>
          </mxGeometry>
        </mxCell>
        <mxCell id="90BueiYt9hdukvajVA8q-29" value="SIGNAL" style="edgeLabel;html=1;align=center;verticalAlign=middle;resizable=0;points=[];" vertex="1" connectable="0" parent="90BueiYt9hdukvajVA8q-18">
          <mxGeometry x="-0.896" y="2" relative="1" as="geometry">
            <mxPoint x="19" y="-8" as="offset" />
          </mxGeometry>
        </mxCell>
        <mxCell id="90BueiYt9hdukvajVA8q-1" value="ADC" style="rounded=1;whiteSpace=wrap;html=1;strokeWidth=2;" vertex="1" parent="1">
          <mxGeometry x="160" y="110" width="80" height="60" as="geometry" />
        </mxCell>
        <mxCell id="90BueiYt9hdukvajVA8q-138" style="edgeStyle=orthogonalEdgeStyle;rounded=0;orthogonalLoop=1;jettySize=auto;html=1;exitX=0.75;exitY=1;exitDx=0;exitDy=0;entryX=0;entryY=0.5;entryDx=0;entryDy=0;" edge="1" parent="1" source="90BueiYt9hdukvajVA8q-3" target="90BueiYt9hdukvajVA8q-101">
          <mxGeometry relative="1" as="geometry" />
        </mxCell>
        <mxCell id="90BueiYt9hdukvajVA8q-140" value="PHASE" style="edgeLabel;html=1;align=center;verticalAlign=middle;resizable=0;points=[];" vertex="1" connectable="0" parent="90BueiYt9hdukvajVA8q-138">
          <mxGeometry x="-0.8828" y="-1" relative="1" as="geometry">
            <mxPoint as="offset" />
          </mxGeometry>
        </mxCell>
        <mxCell id="90BueiYt9hdukvajVA8q-3" value="DDS IF" style="rounded=1;whiteSpace=wrap;html=1;strokeWidth=2;" vertex="1" parent="1">
          <mxGeometry x="160" y="230" width="80" height="60" as="geometry" />
        </mxCell>
        <mxCell id="90BueiYt9hdukvajVA8q-25" value="" style="endArrow=classic;html=1;rounded=0;entryX=0;entryY=1;entryDx=0;entryDy=0;exitX=1;exitY=0.25;exitDx=0;exitDy=0;" edge="1" parent="1" source="90BueiYt9hdukvajVA8q-3">
          <mxGeometry width="50" height="50" relative="1" as="geometry">
            <mxPoint x="300" y="240" as="sourcePoint" />
            <mxPoint x="365.85786437626905" y="154.142135623731" as="targetPoint" />
            <Array as="points">
              <mxPoint x="320" y="245" />
              <mxPoint x="320" y="200" />
            </Array>
          </mxGeometry>
        </mxCell>
        <mxCell id="90BueiYt9hdukvajVA8q-27" value="COS" style="edgeLabel;html=1;align=center;verticalAlign=middle;resizable=0;points=[];" vertex="1" connectable="0" parent="90BueiYt9hdukvajVA8q-25">
          <mxGeometry x="-0.7896" y="1" relative="1" as="geometry">
            <mxPoint y="-9" as="offset" />
          </mxGeometry>
        </mxCell>
        <mxCell id="90BueiYt9hdukvajVA8q-26" value="" style="endArrow=classic;html=1;rounded=0;entryX=0;entryY=1;entryDx=0;entryDy=0;exitX=1;exitY=0.75;exitDx=0;exitDy=0;" edge="1" parent="1" source="90BueiYt9hdukvajVA8q-3">
          <mxGeometry width="50" height="50" relative="1" as="geometry">
            <mxPoint x="240" y="321" as="sourcePoint" />
            <mxPoint x="365.85786437626905" y="234.14213562373095" as="targetPoint" />
            <Array as="points">
              <mxPoint x="340" y="275" />
              <mxPoint x="340" y="260" />
            </Array>
          </mxGeometry>
        </mxCell>
        <mxCell id="90BueiYt9hdukvajVA8q-28" value="SIN" style="edgeLabel;html=1;align=center;verticalAlign=middle;resizable=0;points=[];" vertex="1" connectable="0" parent="90BueiYt9hdukvajVA8q-26">
          <mxGeometry x="-0.7791" y="2" relative="1" as="geometry">
            <mxPoint x="3" y="-8" as="offset" />
          </mxGeometry>
        </mxCell>
        <mxCell id="90BueiYt9hdukvajVA8q-30" value="" style="endArrow=classic;html=1;rounded=0;entryX=0;entryY=0.5;entryDx=0;entryDy=0;" edge="1" parent="1" target="90BueiYt9hdukvajVA8q-1">
          <mxGeometry width="50" height="50" relative="1" as="geometry">
            <mxPoint x="20" y="140" as="sourcePoint" />
            <mxPoint x="250" y="190" as="targetPoint" />
          </mxGeometry>
        </mxCell>
        <mxCell id="90BueiYt9hdukvajVA8q-31" value="VOLTAGE" style="edgeLabel;html=1;align=center;verticalAlign=middle;resizable=0;points=[];" vertex="1" connectable="0" parent="90BueiYt9hdukvajVA8q-30">
          <mxGeometry x="-0.4444" y="2" relative="1" as="geometry">
            <mxPoint x="61" y="-8" as="offset" />
          </mxGeometry>
        </mxCell>
        <mxCell id="90BueiYt9hdukvajVA8q-54" style="edgeStyle=orthogonalEdgeStyle;rounded=0;orthogonalLoop=1;jettySize=auto;html=1;exitX=1;exitY=0.25;exitDx=0;exitDy=0;" edge="1" parent="1" source="90BueiYt9hdukvajVA8q-32">
          <mxGeometry relative="1" as="geometry">
            <mxPoint x="680" y="125" as="targetPoint" />
          </mxGeometry>
        </mxCell>
        <mxCell id="90BueiYt9hdukvajVA8q-57" value="VALUE" style="edgeLabel;html=1;align=center;verticalAlign=middle;resizable=0;points=[];" vertex="1" connectable="0" parent="90BueiYt9hdukvajVA8q-54">
          <mxGeometry x="0.0082" y="-3" relative="1" as="geometry">
            <mxPoint x="-30" y="-14" as="offset" />
          </mxGeometry>
        </mxCell>
        <mxCell id="90BueiYt9hdukvajVA8q-56" style="edgeStyle=orthogonalEdgeStyle;rounded=0;orthogonalLoop=1;jettySize=auto;html=1;exitX=1;exitY=0.75;exitDx=0;exitDy=0;" edge="1" parent="1" source="90BueiYt9hdukvajVA8q-32">
          <mxGeometry relative="1" as="geometry">
            <mxPoint x="680" y="155" as="targetPoint" />
          </mxGeometry>
        </mxCell>
        <mxCell id="90BueiYt9hdukvajVA8q-58" value="COUNT" style="edgeLabel;html=1;align=center;verticalAlign=middle;resizable=0;points=[];" vertex="1" connectable="0" parent="90BueiYt9hdukvajVA8q-56">
          <mxGeometry x="-0.6501" y="-1" relative="1" as="geometry">
            <mxPoint x="9" y="-11" as="offset" />
          </mxGeometry>
        </mxCell>
        <mxCell id="90BueiYt9hdukvajVA8q-32" value="ACCUMULATOR" style="rounded=1;whiteSpace=wrap;html=1;strokeWidth=2;" vertex="1" parent="1">
          <mxGeometry x="460" y="110" width="100" height="60" as="geometry" />
        </mxCell>
        <mxCell id="90BueiYt9hdukvajVA8q-39" style="edgeStyle=orthogonalEdgeStyle;rounded=0;orthogonalLoop=1;jettySize=auto;html=1;exitX=1;exitY=0.5;exitDx=0;exitDy=0;entryX=0;entryY=0.5;entryDx=0;entryDy=0;" edge="1" parent="1" source="90BueiYt9hdukvajVA8q-33" target="90BueiYt9hdukvajVA8q-32">
          <mxGeometry relative="1" as="geometry" />
        </mxCell>
        <mxCell id="90BueiYt9hdukvajVA8q-40" value="I" style="edgeLabel;html=1;align=center;verticalAlign=middle;resizable=0;points=[];" vertex="1" connectable="0" parent="90BueiYt9hdukvajVA8q-39">
          <mxGeometry x="-0.3067" y="3" relative="1" as="geometry">
            <mxPoint x="-11" y="-7" as="offset" />
          </mxGeometry>
        </mxCell>
        <mxCell id="90BueiYt9hdukvajVA8q-33" value="" style="shape=sumEllipse;perimeter=ellipsePerimeter;whiteSpace=wrap;html=1;backgroundOutline=1;strokeWidth=2;" vertex="1" parent="1">
          <mxGeometry x="360" y="120" width="40" height="40" as="geometry" />
        </mxCell>
        <mxCell id="90BueiYt9hdukvajVA8q-42" style="edgeStyle=orthogonalEdgeStyle;rounded=0;orthogonalLoop=1;jettySize=auto;html=1;exitX=1;exitY=0.5;exitDx=0;exitDy=0;entryX=0;entryY=0.5;entryDx=0;entryDy=0;" edge="1" parent="1" source="90BueiYt9hdukvajVA8q-34" target="90BueiYt9hdukvajVA8q-41">
          <mxGeometry relative="1" as="geometry" />
        </mxCell>
        <mxCell id="90BueiYt9hdukvajVA8q-43" value="Q" style="edgeLabel;html=1;align=center;verticalAlign=middle;resizable=0;points=[];" vertex="1" connectable="0" parent="90BueiYt9hdukvajVA8q-42">
          <mxGeometry x="-0.3911" y="2" relative="1" as="geometry">
            <mxPoint x="-8" y="-8" as="offset" />
          </mxGeometry>
        </mxCell>
        <mxCell id="90BueiYt9hdukvajVA8q-34" value="" style="shape=sumEllipse;perimeter=ellipsePerimeter;whiteSpace=wrap;html=1;backgroundOutline=1;strokeWidth=2;" vertex="1" parent="1">
          <mxGeometry x="360" y="200" width="40" height="40" as="geometry" />
        </mxCell>
        <mxCell id="90BueiYt9hdukvajVA8q-65" style="edgeStyle=orthogonalEdgeStyle;rounded=0;orthogonalLoop=1;jettySize=auto;html=1;exitX=1;exitY=0.25;exitDx=0;exitDy=0;" edge="1" parent="1" source="90BueiYt9hdukvajVA8q-41">
          <mxGeometry relative="1" as="geometry">
            <mxPoint x="680" y="205" as="targetPoint" />
          </mxGeometry>
        </mxCell>
        <mxCell id="90BueiYt9hdukvajVA8q-69" value="VALUE" style="edgeLabel;html=1;align=center;verticalAlign=middle;resizable=0;points=[];" vertex="1" connectable="0" parent="90BueiYt9hdukvajVA8q-65">
          <mxGeometry x="-0.6093" y="1" relative="1" as="geometry">
            <mxPoint x="7" y="-9" as="offset" />
          </mxGeometry>
        </mxCell>
        <mxCell id="90BueiYt9hdukvajVA8q-67" style="edgeStyle=orthogonalEdgeStyle;rounded=0;orthogonalLoop=1;jettySize=auto;html=1;exitX=1;exitY=0.75;exitDx=0;exitDy=0;" edge="1" parent="1" source="90BueiYt9hdukvajVA8q-41">
          <mxGeometry relative="1" as="geometry">
            <mxPoint x="680" y="235" as="targetPoint" />
          </mxGeometry>
        </mxCell>
        <mxCell id="90BueiYt9hdukvajVA8q-68" value="COUNT" style="edgeLabel;html=1;align=center;verticalAlign=middle;resizable=0;points=[];" vertex="1" connectable="0" parent="90BueiYt9hdukvajVA8q-67">
          <mxGeometry x="-0.2916" relative="1" as="geometry">
            <mxPoint x="-13" y="-10" as="offset" />
          </mxGeometry>
        </mxCell>
        <mxCell id="90BueiYt9hdukvajVA8q-41" value="ACCUMULATOR" style="rounded=1;whiteSpace=wrap;html=1;strokeWidth=2;" vertex="1" parent="1">
          <mxGeometry x="460" y="190" width="100" height="60" as="geometry" />
        </mxCell>
        <mxCell id="90BueiYt9hdukvajVA8q-46" value="" style="endArrow=none;html=1;rounded=1;jumpStyle=gap;curved=0;strokeWidth=4;jumpSize=1;" edge="1" parent="1">
          <mxGeometry width="50" height="50" relative="1" as="geometry">
            <mxPoint x="360" y="80" as="sourcePoint" />
            <mxPoint x="360" y="80" as="targetPoint" />
            <Array as="points">
              <mxPoint x="80" y="80" />
              <mxPoint x="80" y="190" />
              <mxPoint x="280" y="190" />
              <mxPoint x="280" y="300" />
              <mxPoint x="640" y="300" />
              <mxPoint x="640" y="80" />
            </Array>
          </mxGeometry>
        </mxCell>
        <mxCell id="90BueiYt9hdukvajVA8q-47" value="Duplicated between Device and Reference channels" style="text;html=1;align=center;verticalAlign=middle;resizable=0;points=[];autosize=1;strokeColor=none;fillColor=none;" vertex="1" parent="1">
          <mxGeometry x="210" y="80" width="300" height="30" as="geometry" />
        </mxCell>
        <mxCell id="90BueiYt9hdukvajVA8q-51" value="" style="endArrow=none;html=1;rounded=0;" edge="1" parent="1">
          <mxGeometry width="50" height="50" relative="1" as="geometry">
            <mxPoint x="40" y="120" as="sourcePoint" />
            <mxPoint x="80" y="120" as="targetPoint" />
          </mxGeometry>
        </mxCell>
        <mxCell id="90BueiYt9hdukvajVA8q-89" style="edgeStyle=orthogonalEdgeStyle;rounded=0;orthogonalLoop=1;jettySize=auto;html=1;exitX=1;exitY=0.5;exitDx=0;exitDy=0;" edge="1" parent="1" source="90BueiYt9hdukvajVA8q-52" target="90BueiYt9hdukvajVA8q-88">
          <mxGeometry relative="1" as="geometry" />
        </mxCell>
        <mxCell id="90BueiYt9hdukvajVA8q-90" value="SIN&lt;br&gt;COS" style="edgeLabel;html=1;align=center;verticalAlign=middle;resizable=0;points=[];" vertex="1" connectable="0" parent="90BueiYt9hdukvajVA8q-89">
          <mxGeometry x="-0.2405" y="-1" relative="1" as="geometry">
            <mxPoint x="7" y="-1" as="offset" />
          </mxGeometry>
        </mxCell>
        <mxCell id="90BueiYt9hdukvajVA8q-52" value="DDS REFERENCE" style="rounded=1;whiteSpace=wrap;html=1;strokeWidth=2;" vertex="1" parent="1">
          <mxGeometry x="700" y="320" width="120" height="60" as="geometry" />
        </mxCell>
        <mxCell id="90BueiYt9hdukvajVA8q-60" value="" style="endArrow=classic;html=1;rounded=0;" edge="1" parent="1">
          <mxGeometry width="50" height="50" relative="1" as="geometry">
            <mxPoint x="640" y="140" as="sourcePoint" />
            <mxPoint x="680" y="140" as="targetPoint" />
          </mxGeometry>
        </mxCell>
        <mxCell id="90BueiYt9hdukvajVA8q-61" value="" style="endArrow=classic;html=1;rounded=0;" edge="1" parent="1">
          <mxGeometry width="50" height="50" relative="1" as="geometry">
            <mxPoint x="640" y="110" as="sourcePoint" />
            <mxPoint x="680" y="110" as="targetPoint" />
          </mxGeometry>
        </mxCell>
        <mxCell id="90BueiYt9hdukvajVA8q-70" value="" style="endArrow=classic;html=1;rounded=0;" edge="1" parent="1">
          <mxGeometry width="50" height="50" relative="1" as="geometry">
            <mxPoint x="640" y="220" as="sourcePoint" />
            <mxPoint x="680" y="220" as="targetPoint" />
          </mxGeometry>
        </mxCell>
        <mxCell id="90BueiYt9hdukvajVA8q-71" value="" style="endArrow=classic;html=1;rounded=0;" edge="1" parent="1">
          <mxGeometry width="50" height="50" relative="1" as="geometry">
            <mxPoint x="640" y="190" as="sourcePoint" />
            <mxPoint x="680" y="190" as="targetPoint" />
          </mxGeometry>
        </mxCell>
        <mxCell id="90BueiYt9hdukvajVA8q-116" style="edgeStyle=orthogonalEdgeStyle;rounded=0;orthogonalLoop=1;jettySize=auto;html=1;exitX=1;exitY=0.5;exitDx=0;exitDy=0;entryX=0;entryY=0.5;entryDx=0;entryDy=0;" edge="1" parent="1" source="90BueiYt9hdukvajVA8q-72" target="90BueiYt9hdukvajVA8q-75">
          <mxGeometry relative="1" as="geometry" />
        </mxCell>
        <mxCell id="90BueiYt9hdukvajVA8q-137" value="AXI-S" style="edgeLabel;html=1;align=center;verticalAlign=middle;resizable=0;points=[];" vertex="1" connectable="0" parent="90BueiYt9hdukvajVA8q-116">
          <mxGeometry x="0.005" y="1" relative="1" as="geometry">
            <mxPoint y="5" as="offset" />
          </mxGeometry>
        </mxCell>
        <mxCell id="90BueiYt9hdukvajVA8q-72" value="PACKETISER" style="rounded=1;whiteSpace=wrap;html=1;strokeWidth=2;" vertex="1" parent="1">
          <mxGeometry x="680" y="80" width="100" height="200" as="geometry" />
        </mxCell>
        <mxCell id="90BueiYt9hdukvajVA8q-118" style="edgeStyle=orthogonalEdgeStyle;rounded=0;orthogonalLoop=1;jettySize=auto;html=1;exitX=1;exitY=0.5;exitDx=0;exitDy=0;entryX=0;entryY=0.5;entryDx=0;entryDy=0;" edge="1" parent="1" source="90BueiYt9hdukvajVA8q-73" target="90BueiYt9hdukvajVA8q-76">
          <mxGeometry relative="1" as="geometry" />
        </mxCell>
        <mxCell id="90BueiYt9hdukvajVA8q-133" value="DMA" style="edgeLabel;html=1;align=center;verticalAlign=middle;resizable=0;points=[];" vertex="1" connectable="0" parent="90BueiYt9hdukvajVA8q-118">
          <mxGeometry x="-0.0843" y="1" relative="1" as="geometry">
            <mxPoint x="-1" as="offset" />
          </mxGeometry>
        </mxCell>
        <mxCell id="90BueiYt9hdukvajVA8q-73" value="DMA" style="rounded=1;whiteSpace=wrap;html=1;strokeWidth=2;" vertex="1" parent="1">
          <mxGeometry x="820" y="80" width="80" height="40" as="geometry" />
        </mxCell>
        <mxCell id="90BueiYt9hdukvajVA8q-122" style="edgeStyle=orthogonalEdgeStyle;rounded=0;orthogonalLoop=1;jettySize=auto;html=1;exitX=0.5;exitY=0;exitDx=0;exitDy=0;entryX=0.5;entryY=1;entryDx=0;entryDy=0;" edge="1" parent="1" source="90BueiYt9hdukvajVA8q-74" target="90BueiYt9hdukvajVA8q-73">
          <mxGeometry relative="1" as="geometry" />
        </mxCell>
        <mxCell id="90BueiYt9hdukvajVA8q-135" value="AXI-S" style="edgeLabel;html=1;align=center;verticalAlign=middle;resizable=0;points=[];" vertex="1" connectable="0" parent="90BueiYt9hdukvajVA8q-122">
          <mxGeometry x="-0.0788" y="3" relative="1" as="geometry">
            <mxPoint x="3" y="4" as="offset" />
          </mxGeometry>
        </mxCell>
        <mxCell id="90BueiYt9hdukvajVA8q-74" value="FIFO" style="rounded=1;whiteSpace=wrap;html=1;strokeWidth=2;" vertex="1" parent="1">
          <mxGeometry x="820" y="150" width="80" height="40" as="geometry" />
        </mxCell>
        <mxCell id="90BueiYt9hdukvajVA8q-121" style="edgeStyle=orthogonalEdgeStyle;rounded=0;orthogonalLoop=1;jettySize=auto;html=1;exitX=0.5;exitY=0;exitDx=0;exitDy=0;entryX=0.5;entryY=1;entryDx=0;entryDy=0;" edge="1" parent="1" source="90BueiYt9hdukvajVA8q-75" target="90BueiYt9hdukvajVA8q-74">
          <mxGeometry relative="1" as="geometry" />
        </mxCell>
        <mxCell id="90BueiYt9hdukvajVA8q-134" value="AXI-S" style="edgeLabel;html=1;align=center;verticalAlign=middle;resizable=0;points=[];" vertex="1" connectable="0" parent="90BueiYt9hdukvajVA8q-121">
          <mxGeometry x="-0.2606" relative="1" as="geometry">
            <mxPoint as="offset" />
          </mxGeometry>
        </mxCell>
        <mxCell id="90BueiYt9hdukvajVA8q-75" value="MERGER" style="rounded=1;whiteSpace=wrap;html=1;strokeWidth=2;" vertex="1" parent="1">
          <mxGeometry x="820" y="220" width="80" height="40" as="geometry" />
        </mxCell>
        <mxCell id="90BueiYt9hdukvajVA8q-110" style="edgeStyle=orthogonalEdgeStyle;rounded=0;orthogonalLoop=1;jettySize=auto;html=1;exitX=0.5;exitY=1;exitDx=0;exitDy=0;entryX=0.5;entryY=1;entryDx=0;entryDy=0;" edge="1" parent="1" source="90BueiYt9hdukvajVA8q-76" target="90BueiYt9hdukvajVA8q-100">
          <mxGeometry relative="1" as="geometry">
            <Array as="points">
              <mxPoint x="1000" y="500" />
              <mxPoint x="200" y="500" />
            </Array>
          </mxGeometry>
        </mxCell>
        <mxCell id="90BueiYt9hdukvajVA8q-132" value="AXI" style="edgeLabel;html=1;align=center;verticalAlign=middle;resizable=0;points=[];" vertex="1" connectable="0" parent="90BueiYt9hdukvajVA8q-110">
          <mxGeometry x="-0.8971" y="-2" relative="1" as="geometry">
            <mxPoint x="2" y="-38" as="offset" />
          </mxGeometry>
        </mxCell>
        <mxCell id="90BueiYt9hdukvajVA8q-130" style="edgeStyle=orthogonalEdgeStyle;rounded=0;orthogonalLoop=1;jettySize=auto;html=1;exitX=0.5;exitY=0;exitDx=0;exitDy=0;entryX=0;entryY=0.5;entryDx=0;entryDy=0;" edge="1" parent="1" source="90BueiYt9hdukvajVA8q-76" target="90BueiYt9hdukvajVA8q-73">
          <mxGeometry relative="1" as="geometry">
            <Array as="points">
              <mxPoint x="1000" y="60" />
              <mxPoint x="800" y="60" />
              <mxPoint x="800" y="100" />
            </Array>
          </mxGeometry>
        </mxCell>
        <mxCell id="90BueiYt9hdukvajVA8q-131" value="AXI LITE" style="edgeLabel;html=1;align=center;verticalAlign=middle;resizable=0;points=[];" vertex="1" connectable="0" parent="90BueiYt9hdukvajVA8q-130">
          <mxGeometry x="-0.1881" y="-3" relative="1" as="geometry">
            <mxPoint x="70" y="43" as="offset" />
          </mxGeometry>
        </mxCell>
        <mxCell id="90BueiYt9hdukvajVA8q-76" value="PROCESSING&lt;br&gt;SYSTEM" style="rounded=1;whiteSpace=wrap;html=1;strokeWidth=4;" vertex="1" parent="1">
          <mxGeometry x="940" y="120" width="119" height="100" as="geometry" />
        </mxCell>
        <mxCell id="90BueiYt9hdukvajVA8q-92" style="edgeStyle=orthogonalEdgeStyle;rounded=0;orthogonalLoop=1;jettySize=auto;html=1;exitX=1;exitY=0.25;exitDx=0;exitDy=0;" edge="1" parent="1" source="90BueiYt9hdukvajVA8q-88">
          <mxGeometry relative="1" as="geometry">
            <mxPoint x="1120" y="335" as="targetPoint" />
          </mxGeometry>
        </mxCell>
        <mxCell id="90BueiYt9hdukvajVA8q-159" value="10 MHz SINE" style="edgeLabel;html=1;align=center;verticalAlign=middle;resizable=0;points=[];" vertex="1" connectable="0" parent="90BueiYt9hdukvajVA8q-92">
          <mxGeometry x="0.093" y="-2" relative="1" as="geometry">
            <mxPoint x="12" y="-12" as="offset" />
          </mxGeometry>
        </mxCell>
        <mxCell id="90BueiYt9hdukvajVA8q-99" style="edgeStyle=orthogonalEdgeStyle;rounded=0;orthogonalLoop=1;jettySize=auto;html=1;exitX=1;exitY=0.75;exitDx=0;exitDy=0;" edge="1" parent="1" source="90BueiYt9hdukvajVA8q-88">
          <mxGeometry relative="1" as="geometry">
            <mxPoint x="1120" y="365" as="targetPoint" />
          </mxGeometry>
        </mxCell>
        <mxCell id="90BueiYt9hdukvajVA8q-160" value="10 MHz COSINE" style="edgeLabel;html=1;align=center;verticalAlign=middle;resizable=0;points=[];" vertex="1" connectable="0" parent="90BueiYt9hdukvajVA8q-99">
          <mxGeometry x="0.2212" y="2" relative="1" as="geometry">
            <mxPoint x="1" y="-8" as="offset" />
          </mxGeometry>
        </mxCell>
        <mxCell id="90BueiYt9hdukvajVA8q-88" value="DAC" style="rounded=1;whiteSpace=wrap;html=1;strokeWidth=2;" vertex="1" parent="1">
          <mxGeometry x="880" y="320" width="80" height="60" as="geometry" />
        </mxCell>
        <mxCell id="90BueiYt9hdukvajVA8q-103" style="edgeStyle=orthogonalEdgeStyle;rounded=0;orthogonalLoop=1;jettySize=auto;html=1;exitX=1;exitY=0.25;exitDx=0;exitDy=0;entryX=0;entryY=0.5;entryDx=0;entryDy=0;" edge="1" parent="1" source="90BueiYt9hdukvajVA8q-100" target="90BueiYt9hdukvajVA8q-3">
          <mxGeometry relative="1" as="geometry">
            <Array as="points">
              <mxPoint x="260" y="415" />
              <mxPoint x="260" y="380" />
              <mxPoint x="140" y="380" />
              <mxPoint x="140" y="260" />
            </Array>
          </mxGeometry>
        </mxCell>
        <mxCell id="90BueiYt9hdukvajVA8q-104" value="IF MULT" style="edgeLabel;html=1;align=center;verticalAlign=middle;resizable=0;points=[];" vertex="1" connectable="0" parent="90BueiYt9hdukvajVA8q-103">
          <mxGeometry x="-0.1264" y="1" relative="1" as="geometry">
            <mxPoint x="63" y="-11" as="offset" />
          </mxGeometry>
        </mxCell>
        <mxCell id="90BueiYt9hdukvajVA8q-125" style="edgeStyle=orthogonalEdgeStyle;rounded=0;orthogonalLoop=1;jettySize=auto;html=1;exitX=1;exitY=0.75;exitDx=0;exitDy=0;entryX=0;entryY=0.75;entryDx=0;entryDy=0;" edge="1" parent="1" source="90BueiYt9hdukvajVA8q-100" target="90BueiYt9hdukvajVA8q-75">
          <mxGeometry relative="1" as="geometry">
            <Array as="points">
              <mxPoint x="260" y="445" />
              <mxPoint x="260" y="480" />
              <mxPoint x="680" y="480" />
              <mxPoint x="680" y="300" />
              <mxPoint x="800" y="300" />
              <mxPoint x="800" y="250" />
            </Array>
          </mxGeometry>
        </mxCell>
        <mxCell id="90BueiYt9hdukvajVA8q-126" value="PPT" style="edgeLabel;html=1;align=center;verticalAlign=middle;resizable=0;points=[];" vertex="1" connectable="0" parent="90BueiYt9hdukvajVA8q-125">
          <mxGeometry x="-0.7114" y="1" relative="1" as="geometry">
            <mxPoint x="-47" y="-9" as="offset" />
          </mxGeometry>
        </mxCell>
        <mxCell id="90BueiYt9hdukvajVA8q-128" style="edgeStyle=orthogonalEdgeStyle;rounded=0;orthogonalLoop=1;jettySize=auto;html=1;exitX=1;exitY=0.5;exitDx=0;exitDy=0;" edge="1" parent="1" source="90BueiYt9hdukvajVA8q-100" target="90BueiYt9hdukvajVA8q-127">
          <mxGeometry relative="1" as="geometry">
            <Array as="points">
              <mxPoint x="260" y="430" />
              <mxPoint x="260" y="430" />
            </Array>
          </mxGeometry>
        </mxCell>
        <mxCell id="90BueiYt9hdukvajVA8q-129" value="CONF" style="edgeLabel;html=1;align=center;verticalAlign=middle;resizable=0;points=[];labelBackgroundColor=none;" vertex="1" connectable="0" parent="90BueiYt9hdukvajVA8q-128">
          <mxGeometry x="-0.3077" y="1" relative="1" as="geometry">
            <mxPoint x="4" y="-7" as="offset" />
          </mxGeometry>
        </mxCell>
        <mxCell id="90BueiYt9hdukvajVA8q-100" value="MMIO&lt;br&gt;REGISTERS" style="rounded=1;whiteSpace=wrap;html=1;strokeWidth=2;" vertex="1" parent="1">
          <mxGeometry x="160" y="400" width="80" height="60" as="geometry" />
        </mxCell>
        <mxCell id="90BueiYt9hdukvajVA8q-147" style="edgeStyle=orthogonalEdgeStyle;rounded=0;orthogonalLoop=1;jettySize=auto;html=1;exitX=1;exitY=0.75;exitDx=0;exitDy=0;" edge="1" parent="1" source="90BueiYt9hdukvajVA8q-101">
          <mxGeometry relative="1" as="geometry">
            <mxPoint x="680" y="260" as="targetPoint" />
            <Array as="points">
              <mxPoint x="660" y="365" />
              <mxPoint x="660" y="260" />
            </Array>
          </mxGeometry>
        </mxCell>
        <mxCell id="90BueiYt9hdukvajVA8q-148" value="DATA VALID" style="edgeLabel;html=1;align=center;verticalAlign=middle;resizable=0;points=[];" vertex="1" connectable="0" parent="90BueiYt9hdukvajVA8q-147">
          <mxGeometry x="-0.7611" y="-4" relative="1" as="geometry">
            <mxPoint x="6" y="-14" as="offset" />
          </mxGeometry>
        </mxCell>
        <mxCell id="90BueiYt9hdukvajVA8q-150" style="edgeStyle=orthogonalEdgeStyle;rounded=0;orthogonalLoop=1;jettySize=auto;html=1;exitX=1;exitY=0.25;exitDx=0;exitDy=0;entryX=0;entryY=0.75;entryDx=0;entryDy=0;" edge="1" parent="1" source="90BueiYt9hdukvajVA8q-101" target="90BueiYt9hdukvajVA8q-41">
          <mxGeometry relative="1" as="geometry">
            <Array as="points">
              <mxPoint x="600" y="335" />
              <mxPoint x="600" y="280" />
              <mxPoint x="440" y="280" />
              <mxPoint x="440" y="235" />
            </Array>
          </mxGeometry>
        </mxCell>
        <mxCell id="90BueiYt9hdukvajVA8q-101" value="ACCUMULATOR&lt;br&gt;CONTROL" style="rounded=1;whiteSpace=wrap;html=1;strokeWidth=2;" vertex="1" parent="1">
          <mxGeometry x="400" y="320" width="100" height="60" as="geometry" />
        </mxCell>
        <mxCell id="90BueiYt9hdukvajVA8q-152" style="edgeStyle=orthogonalEdgeStyle;rounded=0;orthogonalLoop=1;jettySize=auto;html=1;exitX=1;exitY=0.25;exitDx=0;exitDy=0;entryX=0;entryY=0.75;entryDx=0;entryDy=0;" edge="1" parent="1" source="90BueiYt9hdukvajVA8q-127" target="90BueiYt9hdukvajVA8q-101">
          <mxGeometry relative="1" as="geometry" />
        </mxCell>
        <mxCell id="90BueiYt9hdukvajVA8q-153" value="ACCUMULATOR&lt;br&gt;TRIGGER" style="edgeLabel;html=1;align=center;verticalAlign=middle;resizable=0;points=[];labelBackgroundColor=default;" vertex="1" connectable="0" parent="90BueiYt9hdukvajVA8q-152">
          <mxGeometry x="-0.3886" y="1" relative="1" as="geometry">
            <mxPoint x="-24" y="-22" as="offset" />
          </mxGeometry>
        </mxCell>
        <mxCell id="90BueiYt9hdukvajVA8q-162" style="edgeStyle=orthogonalEdgeStyle;rounded=0;orthogonalLoop=1;jettySize=auto;html=1;exitX=1;exitY=0.5;exitDx=0;exitDy=0;" edge="1" parent="1" source="90BueiYt9hdukvajVA8q-127">
          <mxGeometry relative="1" as="geometry">
            <mxPoint x="1120" y="430" as="targetPoint" />
          </mxGeometry>
        </mxCell>
        <mxCell id="90BueiYt9hdukvajVA8q-165" value="RF GEN TRIGGER" style="edgeLabel;html=1;align=center;verticalAlign=middle;resizable=0;points=[];" vertex="1" connectable="0" parent="90BueiYt9hdukvajVA8q-162">
          <mxGeometry x="0.8641" relative="1" as="geometry">
            <mxPoint x="-9" y="-8" as="offset" />
          </mxGeometry>
        </mxCell>
        <mxCell id="90BueiYt9hdukvajVA8q-164" style="edgeStyle=orthogonalEdgeStyle;rounded=0;orthogonalLoop=1;jettySize=auto;html=1;exitX=1;exitY=0.75;exitDx=0;exitDy=0;" edge="1" parent="1" source="90BueiYt9hdukvajVA8q-127">
          <mxGeometry relative="1" as="geometry">
            <mxPoint x="1120" y="445" as="targetPoint" />
            <Array as="points">
              <mxPoint x="1120" y="445" />
            </Array>
          </mxGeometry>
        </mxCell>
        <mxCell id="90BueiYt9hdukvajVA8q-166" value="LO GEN TRIGGER" style="edgeLabel;html=1;align=center;verticalAlign=middle;resizable=0;points=[];" vertex="1" connectable="0" parent="90BueiYt9hdukvajVA8q-164">
          <mxGeometry x="0.8384" relative="1" as="geometry">
            <mxPoint y="-8" as="offset" />
          </mxGeometry>
        </mxCell>
        <mxCell id="90BueiYt9hdukvajVA8q-127" value="SEQUENCER" style="rounded=1;whiteSpace=wrap;html=1;strokeWidth=2;" vertex="1" parent="1">
          <mxGeometry x="280" y="400" width="80" height="60" as="geometry" />
        </mxCell>
      </root>
    </mxGraphModel>
  </diagram>
</mxfile>
